#!OML:ASF X:\für Bonn\!DataBase\2005_08_11_Bastian_Final\c3d\Bastian.ASF
:FULLY-SPECIFIED
:DEGREES
143
root -21.8739 17.5856 0.206497 132.489 -78.4958 -137.831
lowerback 4.97469 4.92169 6.53663
upperback 3.21982 6.72615 -3.6749
thorax 1.78714 3.52416 -7.66424
lowerneck -12.3471 -8.16311 1.61478
upperneck -0.0722582 -11.8122 10.1411
head 2.70978 -5.65222 2.27535
rclavicle -6.34123e-014 3.18055e-014
rhumerus 57.8002 -2.15136 -46.5619
rradius 33.9766
rwrist -19.5381
rhand -22.2156 -5.61014
rfingers 7.12502
rthumb 4.20055 -35.5485
lclavicle -6.34123e-014 3.18055e-014
lhumerus -28.6177 -15.4438 85.3155
lradius 14.5749
lwrist 16.2682
lhand -10.4436 -2.3347
lfingers 7.12502
lthumb 15.5564 27.0596
rfemur -0.76833 3.37501 24.5681
rtibia 27.8813
rfoot -11.6844 -10.8157
rtoes -14.8878
lfemur 0.460255 5.22859 -13.5713
ltibia 25.5528
lfoot -12.8349 -2.07993
ltoes -10.9165
144
root -21.8676 17.5855 0.21276 132.595 -78.4682 -137.936
lowerback 4.90334 4.83794 6.40702
upperback 3.23647 6.60574 -3.59846
thorax 1.79614 3.46022 -7.50296
lowerneck -12.3541 -8.11348 1.70118
upperneck 0.391178 -11.7996 10.1345
head 2.8638 -5.62129 2.25225
rclavicle -5.22804e-014 3.18055e-015
rhumerus 57.3161 -2.25944 -47.5643
rradius 35.3477
rwrist -19.4903
rhand -22.4543 -5.13606
rfingers 7.12502
rthumb 3.97012 -35.0788
lclavicle -5.22804e-014 3.18055e-015
lhumerus -28.4424 -15.5465 85.4871
lradius 14.5582
lwrist 16.3177
lhand -10.4482 -2.47396
lfingers 7.12502
lthumb 15.552 26.9207
rfemur -0.812626 3.39782 24.5447
rtibia 27.8998
rfoot -11.702 -10.7817
rtoes -14.5876
lfemur 0.437212 5.21593 -13.5946
ltibia 25.5475
lfoot -12.8257 -2.04106
ltoes -10.7447
145
root -21.8603 17.5856 0.219801 132.614 -78.4623 -137.97
lowerback 4.85612 4.74364 6.28509
upperback 3.25387 6.4727 -3.52684
thorax 1.79275 3.38968 -7.3537
lowerneck -12.2934 -8.06103 1.78753
upperneck 0.848781 -11.7816 10.1439
head 3.00514 -5.58932 2.23798
rclavicle -3.16068e-014 -1.59028e-015
rhumerus 56.7751 -2.33347 -48.5001
rradius 36.807
rwrist -19.4922
rhand -22.637 -4.75338
rfingers 7.12502
rthumb 3.79362 -34.6994
lclavicle -3.16068e-014 -1.59028e-015
lhumerus -28.2635 -15.6757 85.6496
lradius 14.5281
lwrist 16.3492
lhand -10.4398 -2.63901
lfingers 7.12502
lthumb 15.5601 26.755
rfemur -0.843112 3.34686 24.5067
rtibia 27.92
rfoot -11.688 -10.7246
rtoes -14.4366
lfemur 0.422933 5.21571 -13.6128
ltibia 25.5444
lfoot -12.7929 -2.05582
ltoes -10.4168
146
root -21.8536 17.5859 0.226857 132.675 -78.447 -138.049
lowerback 4.79936 4.65851 6.15258
upperback 3.27368 6.35116 -3.44871
thorax 1.79807 3.325 -7.19059
lowerneck -12.2339 -8.02439 1.88709
upperneck 1.34087 -11.7902 10.1404
head 3.15855 -5.5688 2.21492
rclavicle -9.28324e-014 -4.77083e-015
rhumerus 56.1772 -2.38491 -49.3397
rradius 38.3208
rwrist -19.5375
rhand -22.7203 -4.42774
rfingers 7.12502
rthumb 3.71325 -34.3751
lclavicle -9.28324e-014 -4.77083e-015
lhumerus -28.0645 -15.7595 85.8032
lradius 14.5099
lwrist 16.3097
lhand -10.4338 -2.80259
lfingers 7.12502
lthumb 15.5658 26.591
rfemur -0.878142 3.26144 24.4587
rtibia 27.9418
rfoot -11.6787 -10.6192
rtoes -14.4835
lfemur 0.41821 5.21372 -13.6331
ltibia 25.5385
lfoot -12.7739 -2.07517
ltoes -10.0436
147
root -21.8463 17.5855 0.233856 132.687 -78.4388 -138.079
lowerback 4.7363 4.55968 6.01277
upperback 3.2972 6.21089 -3.36245
thorax 1.80671 3.25085 -7.01424
lowerneck -12.1191 -7.99084 1.97806
upperneck 1.83163 -11.7989 10.1296
head 3.30187 -5.55007 2.19335
rclavicle -6.16232e-014 2.38542e-014
rhumerus 55.5341 -2.38889 -50.1439
rradius 39.9409
rwrist -19.6635
rhand -22.7961 -4.1997
rfingers 7.12502
rthumb 3.63996 -34.1484
lclavicle -6.16232e-014 2.38542e-014
lhumerus -27.8501 -15.7721 85.9317
lradius 14.4955
lwrist 16.2346
lhand -10.4319 -2.95643
lfingers 7.12502
lthumb 15.5677 26.437
rfemur -0.913974 3.21438 24.4244
rtibia 27.9702
rfoot -11.6548 -10.5663
rtoes -14.4853
lfemur 0.411023 5.17482 -13.6619
ltibia 25.5291
lfoot -12.746 -2.03489
ltoes -9.76997
148
root -21.8396 17.5854 0.240657 132.801 -78.4373 -138.206
lowerback 4.65761 4.46793 5.83091
upperback 3.32123 6.07812 -3.25919
thorax 1.82017 3.17944 -6.79506
lowerneck -11.9658 -7.96876 2.00586
upperneck 2.3235 -11.8169 10.1644
head 3.4479 -5.5359 2.19876
rclavicle -8.64713e-014 4.6118e-014
rhumerus 54.8429 -2.32897 -50.802
rradius 41.5903
rwrist -19.9509
rhand -22.9191 -3.93234
rfingers 7.12502
rthumb 3.52125 -33.883
lclavicle -8.64713e-014 4.6118e-014
lhumerus -27.6467 -15.8351 86.1178
lradius 14.4732
lwrist 16.1606
lhand -10.423 -3.11602
lfingers 7.12502
lthumb 15.5763 26.2767
rfemur -0.966302 3.14776 24.3667
rtibia 28.0084
rfoot -11.6234 -10.4968
rtoes -14.5426
lfemur 0.402958 5.15529 -13.706
ltibia 25.5133
lfoot -12.7265 -2.02003
ltoes -9.43299
149
root -21.8325 17.5852 0.247949 132.808 -78.43 -138.25
lowerback 4.59506 4.36749 5.67488
upperback 3.36694 5.93479 -3.15501
thorax 1.84985 3.1042 -6.59016
lowerneck -11.7853 -7.95464 1.98056
upperneck 2.80691 -11.8455 10.2782
head 3.59763 -5.52647 2.24048
rclavicle -3.77691e-015 2.06736e-014
rhumerus 54.1112 -2.23959 -51.3914
rradius 43.3126
rwrist -20.3711
rhand -23.0789 -3.64452
rfingers 7.12502
rthumb 3.36689 -33.5977
lclavicle -3.77691e-015 2.06736e-014
lhumerus -27.4011 -15.8846 86.2896
lradius 14.4424
lwrist 16.0858
lhand -10.465 -3.27831
lfingers 7.12502
lthumb 15.5358 26.1176
rfemur -0.992801 3.03247 24.3172
rtibia 28.0502
rfoot -11.5977 -10.4056
rtoes -14.6413
lfemur 0.424659 5.08394 -13.7413
ltibia 25.4991
lfoot -12.7196 -1.96547
ltoes -9.09296
150
root -21.8255 17.5848 0.254231 132.92 -78.4215 -138.387
lowerback 4.51671 4.27529 5.48459
upperback 3.39708 5.80142 -3.04343
thorax 1.87035 3.03245 -6.35793
lowerneck -11.5574 -7.94488 1.88835
upperneck 3.32892 -11.8824 10.4681
head 3.76489 -5.51899 2.32077
rclavicle -9.34288e-015 3.18055e-014
rhumerus 53.3307 -2.10314 -51.9374
rradius 45.0398
rwrist -20.8514
rhand -23.2851 -3.29395
rfingers 7.12502
rthumb 3.16782 -33.2502
lclavicle -9.34288e-015 3.18055e-014
lhumerus -27.1846 -15.9546 86.4783
lradius 14.4241
lwrist 16.011
lhand -10.4609 -3.37655
lfingers 7.12502
lthumb 15.5397 26.0191
rfemur -1.04036 2.95603 24.2636
rtibia 28.0983
rfoot -11.5638 -10.3407
rtoes -14.6961
lfemur 0.426271 5.10639 -13.7733
ltibia 25.4843
lfoot -12.6817 -1.97034
ltoes -8.90526
151
root -21.818 17.5849 0.261453 132.921 -78.4191 -138.398
lowerback 4.42307 4.16804 5.30846
upperback 3.43535 5.64802 -2.92695
thorax 1.90735 2.95159 -6.12725
lowerneck -11.3355 -7.92542 1.90922
upperneck 4.08809 -11.9434 10.7922
head 3.63577 -5.49078 2.16742
rclavicle -1.15295e-014 -2.22639e-014
rhumerus 52.5129 -1.93018 -52.4165
rradius 46.8201
rwrist -21.3934
rhand -23.4806 -2.94885
rfingers 7.12502
rthumb 2.97896 -32.9078
lclavicle -1.15295e-014 -2.22639e-014
lhumerus -26.9245 -15.9307 86.6271
lradius 14.3993
lwrist 15.8445
lhand -10.4464 -3.41363
lfingers 7.12502
lthumb 15.5538 25.9809
rfemur -1.10119 2.8471 24.217
rtibia 28.1486
rfoot -11.5193 -10.2445
rtoes -14.7376
lfemur 0.413946 5.03878 -13.8079
ltibia 25.4715
lfoot -12.6664 -1.93979
ltoes -8.44079
152
root -21.8106 17.5845 0.268383 132.909 -78.4063 -138.429
lowerback 4.36134 4.06081 5.13328
upperback 3.47881 5.49579 -2.80559
thorax 1.9334 2.87083 -5.89483
lowerneck -11.0627 -7.91499 1.83463
upperneck 4.63468 -11.9879 10.9678
head 3.77717 -5.48607 2.22541
rclavicle 3.18055e-015 3.97569e-014
rhumerus 51.6515 -1.72962 -52.8973
rradius 48.5836
rwrist -21.9576
rhand -23.6413 -2.54519
rfingers 7.12502
rthumb 2.82378 -32.5062
lclavicle 3.18055e-015 3.97569e-014
lhumerus -26.6676 -15.9794 86.797
lradius 14.3591
lwrist 15.741
lhand -10.409 -3.41365
lfingers 7.12502
lthumb 15.5898 25.9781
rfemur -1.13149 2.72752 24.178
rtibia 28.2061
rfoot -11.5146 -10.1714
rtoes -14.7675
lfemur 0.433694 5.0489 -13.8214
ltibia 25.4607
lfoot -12.6327 -1.94619
ltoes -8.2513
153
root -21.803 17.5853 0.275016 132.954 -78.4115 -138.49
lowerback 4.27274 3.96075 4.94758
upperback 3.51458 5.35237 -2.70196
thorax 1.97005 2.79467 -5.67362
lowerneck -10.7494 -7.91088 1.74247
upperneck 5.1646 -12.0472 11.2122
head 3.91335 -5.48927 2.30748
rclavicle -4.53229e-014 6.36111e-015
rhumerus 50.7355 -1.5274 -53.3492
rradius 50.3611
rwrist -22.4968
rhand -23.778 -2.27515
rfingers 7.12502
rthumb 2.69176 -32.2379
lclavicle -4.53229e-014 6.36111e-015
lhumerus -26.3739 -16.0252 86.9371
lradius 14.2502
lwrist 15.5968
lhand -10.3947 -3.49638
lfingers 7.12502
lthumb 15.6036 25.8943
rfemur -1.19937 2.58979 24.1186
rtibia 28.2765
rfoot -11.4811 -10.0838
rtoes -14.8452
lfemur 0.426847 5.04042 -13.8534
ltibia 25.4381
lfoot -12.6018 -1.95268
ltoes -7.93643
154
root -21.7956 17.5852 0.281475 132.97 -78.3941 -138.547
lowerback 4.19996 3.84665 4.77439
upperback 3.56462 5.19087 -2.5845
thorax 2.01173 2.70974 -5.44598
lowerneck -10.4564 -7.89613 1.67667
upperneck 5.73603 -12.0958 11.3756
head 4.05785 -5.48724 2.36147
rclavicle 3.37934e-015 -1.11319e-014
rhumerus 49.7951 -1.28416 -53.7883
rradius 52.207
rwrist -23.1144
rhand -23.8467 -2.01631
rfingers 7.12502
rthumb 2.62544 -31.9799
lclavicle 3.37934e-015 -1.11319e-014
lhumerus -26.0274 -15.9592 87.0437
lradius 14.0897
lwrist 15.3682
lhand -10.3799 -3.5625
lfingers 7.12502
lthumb 15.6177 25.827
rfemur -1.2436 2.46865 24.0842
rtibia 28.3593
rfoot -11.4571 -10.014
rtoes -14.9281
lfemur 0.453327 5.0657 -13.8626
ltibia 25.4111
lfoot -12.5573 -1.96659
ltoes -7.86317
